<svg width="36" height="36" viewBox="0 0 36 36" fill="none" xmlns="http://www.w3.org/2000/svg">
<circle cx="18" cy="18" r="18" fill="#EEF7FF"/>
<path d="M11.25 22.875V12.75C11.25 12.1533 11.4871 11.581 11.909 11.159C12.331 10.7371 12.9033 10.5 13.5 10.5H24C24.1989 10.5 24.3897 10.579 24.5303 10.7197C24.671 10.8603 24.75 11.0511 24.75 11.25V24.75C24.75 24.9489 24.671 25.1397 24.5303 25.2803C24.3897 25.421 24.1989 25.5 24 25.5H13.875C13.1788 25.5 12.5111 25.2234 12.0188 24.7312C11.5266 24.2389 11.25 23.5712 11.25 22.875ZM23.25 24V21.75H13.875C13.5766 21.75 13.2905 21.8685 13.0795 22.0795C12.8685 22.2905 12.75 22.5766 12.75 22.875C12.75 23.1734 12.8685 23.4595 13.0795 23.6705C13.2905 23.8815 13.5766 24 13.875 24H23.25ZM12.75 20.5028C13.1015 20.3358 13.4859 20.2495 13.875 20.25H23.25V12H13.5C13.3011 12 13.1103 12.079 12.9697 12.2197C12.829 12.3603 12.75 12.5511 12.75 12.75V20.5028Z" fill="#59AEFD" stroke="#EEF7FF" stroke-width="0.4"/>
</svg>
