<svg width="12" height="18" viewBox="0 0 12 18" fill="none" xmlns="http://www.w3.org/2000/svg">
<path d="M1.56171 18C1.8405 18 2.0764 17.8964 2.25869 17.7204L10.7619 9.6939C10.9656 9.49712 11.0728 9.25892 11.0728 9C11.0728 8.73073 10.9656 8.48216 10.7619 8.3061L2.26941 0.289988C2.0764 0.103567 1.8405 0 1.56171 0C1.00413 0 0.585938 0.414269 0.585938 0.952819C0.585938 1.20138 0.693165 1.44994 0.86473 1.62601L8.67091 9L0.86473 16.374C0.693165 16.5501 0.585938 16.7883 0.585938 17.0472C0.585938 17.5857 1.00413 18 1.56171 18Z" fill="white"/>
</svg>
